<?xml version="1.0" encoding="UTF-8"?>
<svg xmlns="http://www.w3.org/2000/svg" viewBox="0 0 800 550" width="800" height="550">
<defs><style>text{font-family:'Noto Kufi Arabic',sans-serif;}.t{font-size:18px;font-weight:bold;fill:#1A2A3A;}.la{font-size:12px;font-weight:bold;fill:#1A2A3A;}.ls{font-size:10px;fill:#7F8C8D;}.lw{font-size:10px;font-weight:bold;fill:#FFF;}</style></defs>
<rect width="800" height="550" fill="#FFF"/>
<text x="400" y="25" text-anchor="middle" class="t">الحصيلة الطاقوية — Bilan Énergétique Global</text>

<!-- Central ATP -->
<g transform="translate(400, 280)">
  <circle cx="0" cy="0" r="60" fill="#FFD700" stroke="#F57F17" stroke-width="3"/>
  <text x="0" y="-10" text-anchor="middle" style="font-size:22px;font-weight:bold;fill:#1A2A3A">ATP</text>
  <text x="0" y="10" text-anchor="middle" class="ls">الطاقة</text>
  <text x="0" y="30" text-anchor="middle" style="font-size:9px;fill:#7F8C8D">للخلية</text>
</g>

<!-- LEFT: Photosynthesis -->
<g transform="translate(-250, -120)">
  <rect x="-100" y="-30" width="200" height="70" rx="10" fill="#E8F5E9" stroke="#2ECC71" stroke-width="2"/>
  <text x="0" y="-5" text-anchor="middle" class="la" fill="#2ECC71">☀️ التركيب الضوئي</text>
  <text x="0" y="12" text-anchor="middle" class="ls">CO₂ + H₂O + Lumière → Glucose + O₂</text>
  <text x="0" y="28" text-anchor="middle" class="ls">يخزن الطاقة في روابط الجلوكوز</text>
</g>

<!-- RIGHT: Respiration -->
<g transform="translate(250, -120)">
  <rect x="-100" y="-30" width="200" height="70" rx="10" fill="#FCE4EC" stroke="#C62828" stroke-width="2"/>
  <text x="0" y="-5" text-anchor="middle" class="la" fill="#C62828">⚡ التنفس الخلوي</text>
  <text x="0" y="12" text-anchor="middle" class="ls">Glucose + O₂ → CO₂ + H₂O + ATP</text>
  <text x="0" y="28" text-anchor="middle" class="ls">يحرر الطاقة من روابط الجلوكوز</text>
</g>

<!-- Arrows -->
<path d="M -40,-20 C -30,-40 -20,-50 -10,-50" fill="none" stroke="#2ECC71" stroke-width="2" marker-end="url(#arrow)"/>
<path d="M 40,-20 C 30,-40 20,-50 10,-50" fill="none" stroke="#C62828" stroke-width="2" marker-end="url(#arrow)"/>

<!-- BOTTOM: Uses -->
<g transform="translate(0, 120)">
  <rect x="-280" y="0" width="560" height="70" rx="10" fill="#F5F5F5" stroke="#7F8C8D" stroke-width="1.5"/>
  <text x="0" y="18" text-anchor="middle" class="la">استخدامات ATP في الخلية</text>
  <text x="-200" y="40" class="ls">💪 تقلص عضلي</text>
  <text x="-70" y="40" class="ls">🔬 نقل نشط (Na⁺/K⁺)</text>
  <text x="80" y="40" class="ls">🧬 تركيب حيوي</text>
  <text x="200" y="40" class="ls">⚡ نبض عصبي</text>
</g>

<!-- Cycle arrows -->
<path d="M -200,20 C -300,50 -300,100 -200,100" fill="none" stroke="#2ECC71" stroke-width="1.5" stroke-dasharray="5,3"/>
<path d="M 200,20 C 300,50 300,100 200,100" fill="none" stroke="#C62828" stroke-width="1.5" stroke-dasharray="5,3"/>

<!-- Bottom cycle -->
<g transform="translate(0, -200)">
  <text x="0" y="10" text-anchor="middle" style="font-size:13px;font-weight:bold;fill:#1A2A3A">دورة الكربون 🌍</text>
  <text x="0" y="28" text-anchor="middle" class="ls" font-size="9">التركيب الضوئي: CO₂ → Glucose</text>
  <text x="0" y="42" text-anchor="middle" class="ls" font-size="9">التنفس: Glucose → CO₂</text>
</g>

<text x="400" y="540" text-anchor="middle" class="ls">كنز العلوم — SVT Bac Algérie 3AS</text>
</svg>
