<svg aria-label="دورة فيروس VIH داخل اللمفاوية المساعدة LT4" class="pfe-figure" xmlns="http://www.w3.org/2000/svg" viewBox="0 0 900 600" width="900" height="600" role="img">
<rect width="900" height="600" fill="#ffffff"/>
<text x="450.0" y="32" text-anchor="middle" font-size="21" font-weight="700" fill="#006d37" font-family="Noto Naskh Arabic, Amiri, serif">دورة فيروس VIH داخل اللمفاوية المساعدة LT4</text>
<ellipse cx="450" cy="330" rx="330" ry="215" fill="#eff6ff" stroke="#1d4ed8" stroke-width="3"/>
<text x="770" y="150" text-anchor="end" font-size="15" font-weight="700" fill="#1d4ed8" font-family="Noto Naskh Arabic, Amiri, serif">اللمفاوية LT4</text>
<ellipse cx="470" cy="360" rx="120" ry="82" fill="#dbeafe" stroke="#1e40af" stroke-width="2.5"/>
<text x="470" y="366" text-anchor="middle" font-size="15" font-weight="700" fill="#1e40af" font-family="Noto Naskh Arabic, Amiri, serif">النواة</text>
<circle cx="120" cy="175" r="34" fill="#fee2e2" stroke="#b91c1c" stroke-width="2.5"/>
<circle cx="120" cy="175" r="15" fill="#b91c1c" opacity="0.65"/>
<line x1="154.0" y1="175.0" x2="164.0" y2="175.0" stroke="#b91c1c" stroke-width="2.5"/>
<circle cx="164.0" cy="175.0" r="4" fill="#b91c1c"/>
<line x1="144.0" y1="199.0" x2="151.1" y2="206.1" stroke="#b91c1c" stroke-width="2.5"/>
<circle cx="151.1" cy="206.1" r="4" fill="#b91c1c"/>
<line x1="120.0" y1="209.0" x2="120.0" y2="219.0" stroke="#b91c1c" stroke-width="2.5"/>
<circle cx="120.0" cy="219.0" r="4" fill="#b91c1c"/>
<line x1="96.0" y1="199.0" x2="88.9" y2="206.1" stroke="#b91c1c" stroke-width="2.5"/>
<circle cx="88.9" cy="206.1" r="4" fill="#b91c1c"/>
<line x1="86.0" y1="175.0" x2="76.0" y2="175.0" stroke="#b91c1c" stroke-width="2.5"/>
<circle cx="76.0" cy="175.0" r="4" fill="#b91c1c"/>
<line x1="96.0" y1="151.0" x2="88.9" y2="143.9" stroke="#b91c1c" stroke-width="2.5"/>
<circle cx="88.9" cy="143.9" r="4" fill="#b91c1c"/>
<line x1="120.0" y1="141.0" x2="120.0" y2="131.0" stroke="#b91c1c" stroke-width="2.5"/>
<circle cx="120.0" cy="131.0" r="4" fill="#b91c1c"/>
<line x1="144.0" y1="151.0" x2="151.1" y2="143.9" stroke="#b91c1c" stroke-width="2.5"/>
<circle cx="151.1" cy="143.9" r="4" fill="#b91c1c"/>
<text x="120" y="240" text-anchor="middle" font-size="14" font-weight="700" fill="#b91c1c" font-family="Noto Naskh Arabic, Amiri, serif">VIH (فيروس قهقري)</text>
<text x="120" y="260" text-anchor="middle" font-size="12" fill="#b91c1c">gp120 / gp41 + ARN</text>
<rect x="196" y="208" width="16" height="34" rx="4" fill="#1d4ed8"/>
<text x="235" y="200" text-anchor="middle" font-size="13" font-weight="700" fill="#1d4ed8">CD4</text>
<circle cx="235" cy="268" r="15" fill="#006d37"/>
<text x="235" y="273" text-anchor="middle" font-size="14" font-weight="700" fill="#ffffff">1</text>
<circle cx="300" cy="318" r="15" fill="#006d37"/>
<text x="300" y="323" text-anchor="middle" font-size="14" font-weight="700" fill="#ffffff">2</text>
<circle cx="300" cy="392" r="15" fill="#006d37"/>
<text x="300" y="397" text-anchor="middle" font-size="14" font-weight="700" fill="#ffffff">3</text>
<circle cx="470" cy="430" r="15" fill="#006d37"/>
<text x="470" y="435" text-anchor="middle" font-size="14" font-weight="700" fill="#ffffff">4</text>
<circle cx="640" cy="300" r="15" fill="#006d37"/>
<text x="640" y="305" text-anchor="middle" font-size="14" font-weight="700" fill="#ffffff">5</text>
<circle cx="660" cy="205" r="15" fill="#006d37"/>
<text x="660" y="210" text-anchor="middle" font-size="14" font-weight="700" fill="#ffffff">6</text>
<defs><marker id="pf-ar" markerWidth="10" markerHeight="8" refX="9" refY="4" orient="auto"><polygon points="0,0 10,4 0,8" fill="#334155"/></marker></defs>
<line x1="150" y1="190" x2="196" y2="225" stroke="#334155" stroke-width="2.4" marker-end="url(#pf-ar)"/>
<line x1="250" y1="268" x2="296" y2="306" stroke="#334155" stroke-width="2.4" marker-end="url(#pf-ar)"/>
<line x1="300" y1="332" x2="300" y2="378" stroke="#334155" stroke-width="2.4" marker-end="url(#pf-ar)"/>
<line x1="318" y1="400" x2="352" y2="424" stroke="#334155" stroke-width="2.4" marker-end="url(#pf-ar)"/>
<line x1="590" y1="410" x2="636" y2="318" stroke="#334155" stroke-width="2.4" marker-end="url(#pf-ar)"/>
<line x1="652" y1="285" x2="660" y2="222" stroke="#334155" stroke-width="2.4" marker-end="url(#pf-ar)"/>
<text x="30" y="480" font-size="15" font-weight="700" fill="#0f172a" font-family="Noto Naskh Arabic, Amiri, serif">خطوات الدورة :</text>
<text x="30" y="502" font-size="13" fill="#334155" font-family="Noto Naskh Arabic, Amiri, serif">1 — التثبيت : gp120 على مستقبل CD4</text>
<text x="30" y="524" font-size="13" fill="#334155" font-family="Noto Naskh Arabic, Amiri, serif">2 — الاندماج ودخول المحتوى الفيروسي بفضل gp41</text>
<text x="30" y="546" font-size="13" fill="#334155" font-family="Noto Naskh Arabic, Amiri, serif">3 — النسخ العكسي : ARN فيروسي ⟵ ADN</text>
<text x="460" y="502" font-size="13" fill="#334155" font-family="Noto Naskh Arabic, Amiri, serif">4 — الاندماج في ADN الخلية (ADN مدمج)</text>
<text x="460" y="524" font-size="13" fill="#334155" font-family="Noto Naskh Arabic, Amiri, serif">5 — استنساخ وترجمة : بروتينات فيروسية</text>
<text x="460" y="546" font-size="13" fill="#334155" font-family="Noto Naskh Arabic, Amiri, serif">6 — التبرعم وتحرير فيروسات جديدة ⟵ موت الخلية</text>
</svg>